<svg width="14" height="16" viewBox="0 0 14 16" fill="none" xmlns="http://www.w3.org/2000/svg">
  <path
    d="M5.7001 1.68669L1.68677 4.30669C0.400105 5.14669 0.400105 7.02669 1.68677 7.86669L5.7001 10.4867C6.4201 10.96 7.60677 10.96 8.32677 10.4867L12.3201 7.86669C13.6001 7.02669 13.6001 5.15336 12.3201 4.31336L8.32677 1.69336C7.60677 1.21336 6.4201 1.21336 5.7001 1.68669Z"
    stroke="black" stroke-linecap="round" stroke-linejoin="round"/>
  <path
    d="M2.75343 8.71997L2.74677 11.8466C2.74677 12.6933 3.4001 13.6 4.2001 13.8666L6.32677 14.5733C6.69343 14.6933 7.3001 14.6933 7.67343 14.5733L9.8001 13.8666C10.6001 13.6 11.2534 12.6933 11.2534 11.8466V8.7533"
    stroke="black" stroke-linecap="round" stroke-linejoin="round"/>
</svg>
