<!--<svg width="14" height="13" viewBox="0 0 14 13" fill="none" xmlns="http://www.w3.org/2000/svg">-->
<!--  <path-->
<!--    d="M6.52447 0.463524C6.67415 0.00286841 7.32585 0.00286996 7.47553 0.463525L8.68386 4.18237C8.75079 4.38838 8.94277 4.52786 9.15938 4.52786H13.0696C13.554 4.52786 13.7554 5.14767 13.3635 5.43237L10.2001 7.73075C10.0248 7.85807 9.95149 8.08375 10.0184 8.28976L11.2268 12.0086C11.3764 12.4693 10.8492 12.8523 10.4573 12.5676L7.29389 10.2693C7.11865 10.1419 6.88135 10.1419 6.70611 10.2693L3.54267 12.5676C3.15081 12.8523 2.62357 12.4693 2.77325 12.0086L3.98157 8.28976C4.04851 8.08375 3.97518 7.85807 3.79994 7.73075L0.636495 5.43237C0.244639 5.14767 0.446028 4.52786 0.93039 4.52786H4.84062C5.05723 4.52786 5.24921 4.38838 5.31614 4.18237L6.52447 0.463524Z"-->
<!--    fill="#DADADA"/>-->
<!--</svg>-->
<svg width="14" height="13" viewBox="0 0 14 13" fill="none" xmlns="http://www.w3.org/2000/svg">
  <path
    d="M7.33287 0.509878L8.5412 4.22873C8.62821 4.49654 8.87779 4.67786 9.15938 4.67786H13.0696C13.4087 4.67786 13.5496 5.11173 13.2753 5.31102L10.1119 7.60939C9.88408 7.77491 9.78875 8.0683 9.87577 8.33612L11.0841 12.055C11.1889 12.3774 10.8198 12.6456 10.5455 12.4463L7.38206 10.1479C7.15424 9.98238 6.84576 9.98238 6.61794 10.1479L3.4545 12.4463C3.1802 12.6456 2.81113 12.3774 2.9159 12.055L4.12423 8.33612C4.21125 8.0683 4.11592 7.77491 3.88811 7.60939L0.724663 5.31102C0.450365 5.11173 0.591335 4.67786 0.93039 4.67786H4.84062C5.12221 4.67786 5.37179 4.49654 5.4588 4.22872L6.66713 0.509876C6.7719 0.187419 7.2281 0.187418 7.33287 0.509878Z"
    stroke="#DADADA" stroke-width="0.3"/>
</svg>



